<svg xmlns="http://www.w3.org/2000/svg" viewBox="0 0 1084.51 235.44"><defs><style>.cls-1{fill:#01dfdf;}.cls-2{fill:#515254;}.cls-3{fill:red;}</style></defs><g id="Layer_2" data-name="Layer 2"><g id="Layer_1-2" data-name="Layer 1"><path class="cls-1" d="M387,56.52,367.74,190.09H343.21l12.71-89.29L316.71,153H305.06l-23.52-52-12.73,89.08h-24.9l14.9-102.8A107.47,107.47,0,0,0,260,73.91q0-11.28-7.07-14.14l.38-3.25h35.62l28.29,61.18,45.47-61.18Z"/><path class="cls-1" d="M478.18,149H421.24l-.19,1.91q-.57,22.17,22.93,22.17a43.6,43.6,0,0,0,25.8-8.6l1.14,17.39a59.87,59.87,0,0,1-34,10.5q-18.17,0-28.57-11.08t-10.41-29.43q0-22.16,13-38.6,14.15-18,35.54-18,16.82,0,25.23,9.84t8.41,27A84.6,84.6,0,0,1,478.18,149Zm-19.49-16.63v-2.7q0-16.41-14.52-16.41-15.09,0-20.26,19.11Z"/><path class="cls-1" d="M586.72,56.52,570.67,168.88a108.51,108.51,0,0,0-1.34,15.67v5.54H546.78l.58-9.17Q537,192.2,523.28,192.19q-16.81,0-25.42-10.51-8-9.74-8-26.75,0-30.37,19.32-47.2,14.35-12.42,32.33-12.42,11.1,0,16.45,5.94L561.17,80a79.21,79.21,0,0,0,.52-8.22q0-10.69-6.29-12.23l.44-3.06ZM555,122.06q-4.4-6.87-14.51-6.88-13,0-20.43,12.43a46.17,46.17,0,0,0-6.5,24.46q0,21.39,17.43,21.4,11.29,0,18.19-10.69Z"/><path class="cls-1" d="M629.36,97.8l-10,68.59h0A112,112,0,0,0,617.68,184a42.85,42.85,0,0,0,.38,6.12H593.57l9.79-69a54,54,0,0,0,.75-8.22q0-10.69-6.5-12.23l.57-2.86Z"/><path class="cls-2" d="M762.33,60.15,759.08,80.6a68,68,0,0,0-29.43-6.31q-26,0-42.42,16T670.8,132.19q0,17.2,9.36,28.09,9.93,11.66,27,11.66,22.35,0,41.65-15.29l-3.82,25.8q-17,10.7-40.89,10.7-26.94,0-43.76-15.77t-16.82-42.51q0-35.36,24.37-58.48t59.9-23.12Q748,53.27,762.33,60.15Z"/><path class="cls-2" d="M834.56,172.51l-2.29,14.33a31.57,31.57,0,0,1-17,5.16q-10.69,0-12.42-9.74A30.13,30.13,0,0,1,780.29,192q-10.12,0-16.43-5.73t-6.31-15.67q0-29.43,50.07-38.22a45.49,45.49,0,0,0,.76-6.49q0-10.71-11.46-10.71-15.1,0-28.09,12.43l3.06-20.83q12.79-11.09,31.72-11.09,12.6,0,19.87,5.74,8,6.3,8,18.72a47.11,47.11,0,0,1-.58,6.88l-6.3,43.38v1.05c0,2.1,1,3.15,3,3.15A15.31,15.31,0,0,0,834.56,172.51Zm-29.19-25.6q-25.85,3.83-25.84,18.92,0,8.78,10.72,8.78,7.08,0,12-6.1Z"/><path class="cls-2" d="M976.16,183.79a30.51,30.51,0,0,0,.57,6.3h-25l8.54-58.48a20.49,20.49,0,0,0,.42-4q0-12.8-11.08-12.8-11.65,0-19.3,13.19a27.66,27.66,0,0,1-.38,3.63l-8.41,58.47H898.92l8.41-58.48a20.49,20.49,0,0,0,.42-4q0-12.8-11.06-12.8-11.25,0-19.07,12.81l-9,62.48H846l9.93-69a49.65,49.65,0,0,0,.77-8q0-10.69-6.5-12.42l.58-2.86H880l-1.14,11.46q10.5-13.56,27.7-13.57,17.77,0,22.55,15.48,13-15.48,30.39-15.48,24.08,0,24.07,26.76a60.51,60.51,0,0,1-.76,9.17l-5.54,38.79A85.58,85.58,0,0,0,976.16,183.79Z"/><path class="cls-2" d="M1031.67,192.19a37.39,37.39,0,0,1-14.3-2.65l-6.2,43H988.58L1011.13,76.2h21L1027.74,107q10.69-11.65,26-11.66,14.71,0,23.13,10.89,7.65,9.94,7.65,25,0,25.6-13.35,42.61Q1056.46,192.2,1031.67,192.19Zm28.76-56.75q0-20.25-16.82-20.26-9.55,0-16.81,9l-6.49,46.27a20.87,20.87,0,0,0,12.17,3.41q14.26,0,21.68-12.61Q1060.43,150.92,1060.43,135.44Z"/><polygon class="cls-3" points="146.37 75.07 126.55 75.07 126.55 55.25 117.7 55.25 117.7 75.07 97.88 75.07 97.88 83.92 117.7 83.92 117.7 103.74 126.55 103.74 126.55 83.92 146.37 83.92 146.37 75.07"/><path class="cls-1" d="M185.89,163.14h18.92q-2.91,26.67-15.9,43.82c-.19.26-.39.52-.59.77a65.09,65.09,0,0,1-8.61,9.11A68.41,68.41,0,0,1,168.12,225,76.47,76.47,0,0,1,150,232.23a106.68,106.68,0,0,1-27,3.21c-3,0-5.94-.13-8.82-.41a93.83,93.83,0,0,1-22.94-4.46,74,74,0,0,1-15.15-7,69.28,69.28,0,0,1-18-15.8c-.78-1-1.54-2-2.26-3-16.1-22.26-16.37-48.53-16.37-48.53,0-1.43-.09-3-.1-4.62V122.79c0-.47,0-.92,0-1.39l-15,18.25H0l115.12-131,7-8.63,7.19,8.63L222.7,113.22H198.25l-76-83.48h0L120.08,32l-.56.6C109.74,43,76.08,79.2,66.24,96.25a22.16,22.16,0,0,0-2.6,5.88h0a70.79,70.79,0,0,0-5.27,20.21c0,.38,0,.74,0,1.11v27.18a103.41,103.41,0,0,0,.81,14h0a.59.59,0,0,1,0,.13.41.41,0,0,1,0,.11c0,.2.08.51.15.91a3.35,3.35,0,0,0,.07.44,46.52,46.52,0,0,0,1.7,7.16c.5,1.76,1.13,3.71,1.9,5.8q8.92-32.08,17.78-64.17a1.68,1.68,0,0,1,2-1.45q13.19.09,26.39,0c1.28,0,1.69.45,2,1.61,2.75,10.09,5.57,20.16,8.38,30.24a3.16,3.16,0,0,1,.12,1.8q-7.16,25.71-14.32,51.42a5,5,0,0,1-.28.5c-3-10.88-6-21.52-9.08-32.64-.66,2.36-1.21,4.28-1.75,6.19q-3.06,11-6.14,22.07h0l-.12.43-3.72,13.71C93.49,215.8,106,220.41,123,219.59q15.51,0,27-3.93a50.25,50.25,0,0,0,10.53-4.93l-1.11-4h0v0c0-.11-.08-.24-.12-.38-.63-2.28-1.25-4.57-1.88-6.86l-1-3.78c-1.83-6.64-3.7-13.27-5.55-19.89a3.89,3.89,0,0,1,0-2.14q7.06-25.37,14.1-50.73a7.19,7.19,0,0,1,.41-.9c5,18.12,10,35.94,14.93,53.77.54,1.94,1.07,3.88,1.61,5.83A96.59,96.59,0,0,0,185.89,163.14Z"/><path class="cls-1" d="M66.24,96.25q-1.39,2.93-2.6,5.88A22.16,22.16,0,0,1,66.24,96.25Z"/><path class="cls-1" d="M148.36,113.65c-4.2,0-8.41.1-12.61-.06-1.73-.06-2.38.47-2.84,2.12q-12.43,45.14-25,90.24c-.44,1.55-.15,1.87,1.38,1.86,7.79-.06,15.58,0,23.37,0,4.17,0,4.17,0,5.26-3.92q12.33-44.38,24.67-88.76c.35-1.23.2-1.5-1.09-1.48C157.1,113.69,152.73,113.65,148.36,113.65Z"/><path class="cls-3" d="M619.59,85a10.54,10.54,0,0,1-8.22-3.63,12.44,12.44,0,0,1-3.25-8.6,15.14,15.14,0,0,1,4.2-10.51,13.06,13.06,0,0,1,9.94-4.58,10.71,10.71,0,0,1,8.22,3.53,12.42,12.42,0,0,1,3.25,8.7,15.3,15.3,0,0,1-4.11,10.51A13,13,0,0,1,619.59,85Z"/></g></g></svg>